<svg id="visual" viewBox="0 0 2000 300" width="2000" height="300" xmlns="http://www.w3.org/2000/svg" xmlns:xlink="http://www.w3.org/1999/xlink" version="1.1"><rect x="0" y="0" width="2000" height="300" fill="#FFFFFF"></rect><path d="M0 224L47.7 215.2C95.3 206.3 190.7 188.7 285.8 188C381 187.3 476 203.7 571.2 208.5C666.3 213.3 761.7 206.7 857 200.3C952.3 194 1047.7 188 1143 194.2C1238.3 200.3 1333.7 218.7 1428.8 215.8C1524 213 1619 189 1714.2 179.2C1809.3 169.3 1904.7 173.7 1952.3 175.8L2000 178L2000 0L1952.3 0C1904.7 0 1809.3 0 1714.2 0C1619 0 1524 0 1428.8 0C1333.7 0 1238.3 0 1143 0C1047.7 0 952.3 0 857 0C761.7 0 666.3 0 571.2 0C476 0 381 0 285.8 0C190.7 0 95.3 0 47.7 0L0 0Z" fill="#fa7268"></path><path d="M0 89L47.7 107C95.3 125 190.7 161 285.8 166C381 171 476 145 571.2 132.8C666.3 120.7 761.7 122.3 857 136.2C952.3 150 1047.7 176 1143 180.8C1238.3 185.7 1333.7 169.3 1428.8 152C1524 134.7 1619 116.3 1714.2 118.2C1809.3 120 1904.7 142 1952.3 153L2000 164L2000 0L1952.3 0C1904.7 0 1809.3 0 1714.2 0C1619 0 1524 0 1428.8 0C1333.7 0 1238.3 0 1143 0C1047.7 0 952.3 0 857 0C761.7 0 666.3 0 571.2 0C476 0 381 0 285.8 0C190.7 0 95.3 0 47.7 0L0 0Z" fill="#eb5967"></path><path d="M0 59L47.7 68C95.3 77 190.7 95 285.8 105C381 115 476 117 571.2 109.8C666.3 102.7 761.7 86.3 857 76.3C952.3 66.3 1047.7 62.7 1143 72C1238.3 81.3 1333.7 103.7 1428.8 119C1524 134.3 1619 142.7 1714.2 131.7C1809.3 120.7 1904.7 90.3 1952.3 75.2L2000 60L2000 0L1952.3 0C1904.7 0 1809.3 0 1714.2 0C1619 0 1524 0 1428.8 0C1333.7 0 1238.3 0 1143 0C1047.7 0 952.3 0 857 0C761.7 0 666.3 0 571.2 0C476 0 381 0 285.8 0C190.7 0 95.3 0 47.7 0L0 0Z" fill="#da3f67"></path><path d="M0 100L47.7 89.5C95.3 79 190.7 58 285.8 54C381 50 476 63 571.2 71.3C666.3 79.7 761.7 83.3 857 82.2C952.3 81 1047.7 75 1143 66.2C1238.3 57.3 1333.7 45.7 1428.8 45C1524 44.3 1619 54.7 1714.2 53.2C1809.3 51.7 1904.7 38.3 1952.3 31.7L2000 25L2000 0L1952.3 0C1904.7 0 1809.3 0 1714.2 0C1619 0 1524 0 1428.8 0C1333.7 0 1238.3 0 1143 0C1047.7 0 952.3 0 857 0C761.7 0 666.3 0 571.2 0C476 0 381 0 285.8 0C190.7 0 95.3 0 47.7 0L0 0Z" fill="#c62368"></path></svg>